<?xml version="1.0" encoding="utf-8"?>
<svg height="48px" id="Слой_1" style="enable-background:new 0 0 48 48;" version="1.1" viewBox="0 0 48 48" width="48px" xmlns="http://www.w3.org/2000/svg">
  <g>
    <g>
      <circle cx="33" cy="10" r="2" style="fill: rgb(1, 180, 0);"/>
      <g>
        <path d="M45,12h-4v-2c0-4.4-3.6-8-8-8H21c-1.7,0-3,1.3-3,3c0,1.3,0.8,2.4,2,2.8V9c0,1.7,1.3,3,3,3h2h1h1      v-2c0-3.3,2.7-6,6-6s6,2.7,6,6v11c0,9.4-7.6,17-17,17c-6.7,0-12.8-4-15.5-10H21c3.3,0,6-2.7,6-6v-8h-2c0,2.2-1.8,4-4,4H2      c-1.1,0-2,0.9-2,2v2c0,2.7,1.8,5,4.2,5.7c2.4,6.4,8.1,11,14.8,12V46h2v-6c0.3,0,0.7,0,1,0c0.3,0,0.7,0,1-0.1V46h6v-2h-4v-4.3      C33.7,38.3,40.5,31,40.9,22H43c1.7,0,3-1.3,3-3v-1.2c1.2-0.4,2-1.5,2-2.8C48,13.3,46.7,12,45,12z M23,10c-0.6,0-1-0.4-1-1V8h3.3      C25.1,8.6,25,9.3,25,10H23z M26,6.1V6h-5c-0.6,0-1-0.4-1-1s0.4-1,1-1h6.7C27,4.6,26.4,5.3,26,6.1z M2,22v-2h19      c1.5,0,2.9-0.6,4-1.5V22c0,2.2-1.8,4-4,4H6C3.8,26,2,24.2,2,22z M43,20h-2v-2h3v1C44,19.6,43.6,20,43,20z M45,16h-1h-3v-2h4      c0.6,0,1,0.4,1,1S45.6,16,45,16z" style="fill: rgb(157, 157, 157);"/>
        <rect height="2" style="fill: rgb(157, 157, 157);" width="8" x="10" y="22"/>
      </g>
    </g>
  </g>
</svg>